<?xml version="1.0" encoding="UTF-8" standalone="no"?>
<!-- Created with Inkscape (http://www.inkscape.org/) -->
<!-- ClipArt by Arvin61r58 (http://openclipart.org/user-detail/Arvin61r58) -->
<svg
    xmlns:inkscape="http://www.inkscape.org/namespaces/inkscape"
    xmlns:rdf="http://www.w3.org/1999/02/22-rdf-syntax-ns#"
    xmlns="http://www.w3.org/2000/svg"
    xmlns:sodipodi="http://sodipodi.sourceforge.net/DTD/sodipodi-0.dtd"
    xmlns:ns1="http://sozi.baierouge.fr"
    xmlns:cc="http://creativecommons.org/ns#"
    xmlns:xlink="http://www.w3.org/1999/xlink"
    xmlns:dc="http://purl.org/dc/elements/1.1/"
    id="svg3923"
    viewBox="0 0 500 608.65"
    version="1.1"
  >
  <g
    id="layer1"
    transform="translate(-122.05 -167.53)"
  >
    <g id="g4912">
      <g id="g4888">
        <path
					id="path3062"
					style="fill:#ff0000"
					d="m362.98 385.09-30.972-94.394-51.063 109.64-123.39-100.71 60.207 138.68-90.718 30.688 69.445 91.106-63.518 109.14 109.26-45.798-59.879 134.5 108.07-85.026-1.6904 89.395 67.963-109.64 36.355 118.51 45.679-132.53 107.56 127.76-41.29-172.11 112.04 10.162-93.931-82.444 85.745-53.839-107.02-38.691 99.926-123.51-144.57 68.685-9.695-93.474z"
        />
        <path
					id="path3898"
					style="fill:#f38220"
					d="m342.18 449.86 35.491-69.38 51.037 61.237 107.39-93.094-65.608 112.05 71.99 14.591-57.921 46.214 41.609 50.124-71.859-18.501 41.18 44.803-73.052-20.103 53.787 58.467-96.326-31.442-25.335 41.744-35.374-55.495-121.53 10.698 82.862-63.224-117.74-47.681 105.76 11.595-52.319-52.987 66.388 6.792-88.325-89.581 117.85 62.209 27.2-91.212z"
        />
        <path
					id="path3855"
					style="fill:#f3f320"
					d="m419.8 472.64 13.329-57.063-47.745 52.102 49.988-118.69-81.533 105.74-47.594-69.522 9.6425 93.514-84.857-57.373 52.28 88.373-80.411 39.942 68.28-0.15433-24.729 33.029 43.313-11.284-4.4017 24.989 25.386-12.53-20.386 68.144 46.27-62.489-16.644 76.48 44.66-70.973 26.778 86.406 0.003-91.289 20.029 6.1168 5.9555-28.808 50.919 12.378-33.126-44.866 82.579-8.5309-88.919-14.237 147.45-43.067z"
        />
      </g>
      <g id="g4893">
        <g
          id="g4141"
          transform="matrix(.777 0 0 .777 586.79 -25.765)"
        >
          <path
						id="path3034"
						style="fill:#000000"
						d="m-289.72 540.28c-0.14641 0.0516-0.27773 0.10379-0.4375 0.15625l-3.4375 1.125-0.5 7.7812-0.5 7.7812-11 1.8438c-63.942 10.59-114.1 60.047-126.12 124.34-2.5916 13.861-2.5916 40.139 0 54 7.735 41.37 31.24 77.19 66 100.59 20.264 13.644 41.035 21.144 70.125 25.312 7.1715 1.0276 35.344-0.43881 44.594-2.3125 54.776-11.095 99.132-50.418 116.25-103.09 5.4647-16.816 7.1562-28.02 7.1562-47.5 0-12.373-0.51421-19.722-1.875-27-11.911-63.705-60.564-112.31-124.12-123.97l-12-2.2188-0.28125-7.75c-0.28688-7.5862-0.36478-7.8172-3.25-8.9062-0.15015-0.0567-0.29321-0.1231-0.4375-0.1875h-20.156z"
          />
          <path
						id="path3032"
						style="fill:#ffffff"
						d="m-337.59 816.8c1.5808-1.65 3.3171-3 3.8584-3 1.8505 0 4.6416-3.3073 4.6416-5.5 0-2.8016-2.4559-4.9245-7.5-6.4832-6.1256-1.8928-19.814-9.372-26.332-14.388-6.909-5.3164-11.44-10.282-14.056-15.407-1.0452-2.0472-3.6595-5.1348-5.8095-6.8613-2.5937-2.0828-4.3724-4.6065-5.2859-7.5-0.75724-2.3985-1.694-4.8109-2.0818-5.3609-0.38773-0.55-2.8179-5.05-5.4004-10s-5.3889-9.675-6.2364-10.5c-1.3857-1.349-1.4768-0.67946-0.9045 6.6484 2.469 31.613 23.733 64.75 49.991 77.903 8.5422 4.2788 11.366 4.3626 15.116 0.44844z"
          />
          <path
						id="path3030"
						style="fill:#ffffff"
						d="m-403.62 719.85c0.32269-0.52213-0.4288-3.7846-1.67-7.25-2.0784-5.8029-2.2514-7.9431-2.1893-27.089 0.0466-14.372 0.42588-21.147 1.229-21.95 1.4463-1.4463 1.499-2.7616 0.11061-2.7616-1.5926 0-4.0372 6.623-5.5367 15-3.3873 18.923 0.11959 45 6.0518 45 0.77986 0 1.682-0.4272 2.0046-0.94932z"
          />
        </g>
      </g>
    </g>
  </g>
</svg>
